<?xml version="1.0" encoding="UTF-8"?>
<!DOCTYPE svg  PUBLIC '-//W3C//DTD SVG 1.1//EN'  'http://www.w3.org/Graphics/SVG/1.1/DTD/svg11.dtd'>
<svg version="1.1" xmlns="http://www.w3.org/2000/svg">
<defs>
<font id="PanoTrial-LightItalic" horiz-adv-x="1062">
<font-face font-family="Pano Trial Light" font-stretch="ultra-expanded" font-style="italic" font-weight="300" ascent="768" bbox="-204 -252 1470 744" cap-height="722" descent="-232" panose-1="2 11 3 7 2 1 1 2 1 4" slope="-16" underline-position="-120" underline-thickness="58" unicode-range="U+0020-00FD" units-per-em="1000" x-height="561"/>
<missing-glyph/>
<glyph glyph-name="space" horiz-adv-x="300" unicode=" "/>
<glyph d="M4 119h146l-29 -100l-145 -188h-40l85 169h-51z" glyph-name="comma" horiz-adv-x="246" unicode=","/>
<glyph d="M64 328h400l-22 -77h-400z" glyph-name="hyphen" horiz-adv-x="500" unicode="-"/>
<glyph d="M4 119h147l-34 -119h-147z" glyph-name="period" horiz-adv-x="247" unicode="."/>
<glyph d="M76 300q0 174 143 296q149 126 386 144q36 3 72 3q240 0 355 -115q79 -79 79 -197q0 -174 -143 -295q-148 -127 -386 -145q-36 -3 -72 -3q-238 0 -354 114q-80 79 -80 198zM1022 423q0 141 -135 206q-88 42 -217 42q-207 0 -353 -102q-129 -91 -149 -220q-3 -21 -3 -41 q0 -139 132 -204q89 -44 220 -44q207 0 353 102q130 91 149 222q3 20 3 39z" glyph-name="zero" horiz-adv-x="1138" unicode="0"/>
<glyph d="M515 722h54l-207 -722h-87l176 616l-345 -140l-4 2l23 81z" glyph-name="one" horiz-adv-x="527" unicode="1"/>
<glyph d="M-26 30q56 185 291 277q95 38 307 84q173 37 229 67q64 36 65 89q0 86 -145 113q-55 10 -124 10q-223 0 -444 -115l-3 2l27 93q193 85 384 91q20 1 39 1q307 0 349 -147q6 -23 6 -47q0 -111 -132 -169q-69 -31 -257 -71q-204 -43 -293 -83q-130 -58 -179 -153h757 l-21 -72h-865z" glyph-name="two" horiz-adv-x="956" unicode="2"/>
<glyph d="M981 556q0 -103 -123 -165q-19 -9 -39 -17q101 -42 102 -133q0 -110 -136 -181q-140 -72 -361 -72q-242 0 -407 84q-19 11 -36 21l23 79l4 1q110 -80 299 -105q62 -8 124 -8q202 0 318 67q82 47 83 111q-2 102 -214 102h-320l21 72h321q158 0 223 66q29 30 29 66 q0 78 -135 109q-72 17 -170 17q-210 0 -404 -91l-48 -24l-3 2l27 93q183 81 370 90q32 2 65 2q288 0 364 -109q23 -35 23 -77z" glyph-name="three" horiz-adv-x="994" unicode="3"/>
<glyph d="M950 722l-141 -493h121l-21 -72h-121l-45 -157h-91l45 157h-687l16 56l864 509h60zM203 229h515l105 369z" glyph-name="four" horiz-adv-x="980" unicode="4"/>
<glyph d="M979 650h-696l-106 -252q193 102 423 102q259 0 325 -127q19 -38 19 -84q0 -132 -132 -215q-138 -86 -365 -86q-242 0 -407 84q-19 11 -36 21l23 77l4 1q111 -81 307 -104q58 -7 116 -7q215 0 325 88q71 59 72 137q-2 142 -267 143q-188 0 -366 -86q-39 -19 -81 -43 l-74 45l164 378h773z" glyph-name="five" horiz-adv-x="996" unicode="5"/>
<glyph d="M683 742q210 0 356 -75l-25 -81l-7 -1q-147 82 -334 84q-195 0 -332 -88q-110 -72 -141 -177q146 102 411 102q383 0 393 -212v-11q0 -137 -139 -217q-136 -78 -361 -78q-416 0 -432 271q-1 11 -1 22q0 159 116 281q146 155 414 177q41 3 82 3zM600 431q-250 0 -364 -86 q-62 -48 -63 -112q0 -92 122 -138q89 -33 219 -33q214 0 325 80q75 55 76 133q-2 156 -315 156z" glyph-name="six" horiz-adv-x="1058" unicode="6"/>
<glyph d="M152 722h858l-17 -59q-449 -200 -617 -575q-19 -44 -34 -88h-91q150 429 579 650h-699z" glyph-name="seven" horiz-adv-x="908" unicode="7"/>
<glyph d="M1019 555q0 -114 -159 -164q-36 -11 -78 -18q180 -44 181 -165q0 -123 -170 -180q-121 -41 -309 -41q-340 0 -424 125q-24 37 -24 81q0 130 191 182q44 11 94 18q-145 41 -158 138q-1 9 -1 17q0 114 172 162q108 31 272 31q369 0 409 -150q4 -18 4 -36zM596 421 q304 0 333 104q3 11 3 21q0 107 -253 122q-38 2 -80 2q-277 0 -336 -84q-13 -19 -13 -41q0 -87 182 -114q71 -10 164 -10zM876 210q-2 134 -361 134q-321 0 -380 -101q-12 -20 -12 -43q0 -97 189 -128q76 -12 176 -12q285 0 364 88q24 29 24 62z" glyph-name="eight" horiz-adv-x="1045" unicode="8"/>
<glyph d="M620 742q332 0 391 -179q14 -42 14 -93q0 -161 -107 -287q-143 -170 -418 -192q-38 -3 -77 -3q-203 0 -338 64l-14 7l25 78l6 1q115 -66 293 -77q24 -1 47 -1q185 0 322 91q108 73 140 177q-157 -107 -416 -107q-292 0 -365 134q-22 40 -22 89q0 137 147 219 q143 79 372 79zM504 298q252 0 365 93q63 52 64 120q0 134 -245 153q-38 3 -80 3q-252 0 -361 -94q-57 -52 -58 -120q2 -155 315 -155z" glyph-name="nine" horiz-adv-x="1043" unicode="9"/>
<glyph d="M881 0l-50 181h-597l-186 -181h-128l753 722h100l209 -722h-101zM311 256h499l-107 382z" glyph-name="A" unicode="A"/>
<glyph d="M920 375q124 -40 125 -138q0 -111 -107 -177q-99 -60 -259 -60h-664l207 722h600q261 -1 262 -154q0 -96 -97 -159q-30 -20 -67 -34zM792 645h-495l-67 -232h516q144 0 209 68q32 34 32 75q0 74 -129 86q-30 3 -66 3zM673 77q160 0 235 71q40 38 40 85q0 83 -127 100 q-31 4 -66 4h-546l-75 -260h539z" glyph-name="B" horiz-adv-x="1120" unicode="B"/>
<glyph d="M79 315q0 169 148 286q160 125 423 139q30 2 59 2q214 0 377 -83q36 -18 64 -38l-28 -77l-5 -1q-124 91 -319 115q-55 7 -109 7q-218 0 -368 -103q-126 -87 -144 -207q-3 -18 -3 -35q0 -140 139 -207q100 -48 251 -48q244 1 463 145l5 -2l-39 -109q-196 -111 -439 -111 q-280 0 -402 131q-73 80 -73 196z" glyph-name="C" horiz-adv-x="1148" unicode="C"/>
<glyph d="M700 722q343 0 413 -181q17 -44 17 -96q0 -206 -172 -326q-172 -119 -464 -119h-479l207 722h478zM475 77q299 0 450 129q107 92 108 225q0 136 -133 183q-88 31 -244 31h-359l-163 -568h341z" glyph-name="D" horiz-adv-x="1155" unicode="D"/>
<glyph d="M1066 645h-769l-70 -245h728l-25 -77h-725l-71 -246h772l-22 -77h-869l207 722h869z" glyph-name="E" horiz-adv-x="1029" unicode="E"/>
<glyph d="M1047 645h-750l-70 -245h709l-25 -77h-706l-93 -323h-97l207 722h850z" glyph-name="F" horiz-adv-x="1010" unicode="F"/>
<glyph d="M711 742q212 0 376 -78q41 -20 73 -43l-28 -77l-5 -1q-118 85 -307 113q-64 9 -126 9q-215 0 -365 -98q-133 -87 -152 -211q-3 -18 -3 -36q0 -140 139 -207q100 -48 251 -48q180 0 348 80l62 187h-525l22 75h623l-3 -10l-21 -65l-60 -183l-16 -50q-196 -111 -440 -111 q-280 0 -402 131q-73 80 -73 196q0 169 148 285q159 126 423 140q30 2 61 2z" glyph-name="G" horiz-adv-x="1157" unicode="G"/>
<glyph d="M1043 722h97l-207 -722h-97l93 323h-724l-93 -323h-97l207 722h97l-92 -322h724z" glyph-name="H" horiz-adv-x="1108" unicode="H"/>
<glyph d="M222 722h97l-207 -722h-97z" glyph-name="I" horiz-adv-x="287" unicode="I"/>
<glyph d="M20 18l25 77l4 1q64 -31 158 -31q227 0 318 216q15 35 26 75l105 366h97l-102 -355q-68 -238 -212 -322q-98 -57 -247 -57q-113 0 -172 30z" glyph-name="J" horiz-adv-x="721" unicode="J"/>
<glyph d="M573 442h4l358 -438l-3 -4h-117l-324 400l-311 -161l-68 -239h-97l207 722h97l-108 -378l729 378h165l1 -4z" glyph-name="K" horiz-adv-x="1014" unicode="K"/>
<glyph d="M134 75h727l-22 -75h-824l207 722h97z" glyph-name="L" horiz-adv-x="985" unicode="L"/>
<glyph d="M1339 722l-207 -722h-97l170 594l-584 -594h-81l-258 591l-170 -591h-97l207 722h99l274 -629l616 629h128z" glyph-name="M" horiz-adv-x="1307" unicode="M"/>
<glyph d="M1043 722h97l-207 -722h-98l-543 626l-180 -626h-97l207 722h102l540 -625z" glyph-name="N" horiz-adv-x="1108" unicode="N"/>
<glyph d="M557 -12q-262 0 -391 115q-90 81 -90 200q0 176 147 295q166 135 450 145q22 1 44 1q260 0 389 -113q90 -80 90 -196q0 -177 -149 -299q-161 -131 -427 -146q-32 -2 -63 -2zM575 65q232 0 382 109q128 93 140 226q1 12 1 24q0 133 -142 197q-102 46 -259 46 q-232 0 -383 -108q-126 -91 -139 -219q-1 -13 -1 -25q0 -142 149 -207q100 -43 252 -43z" glyph-name="O" horiz-adv-x="1222" unicode="O"/>
<glyph d="M760 722q208 0 273 -97q24 -36 24 -82q0 -149 -157 -216q-105 -45 -264 -45h-443l-81 -282h-97l207 722h538zM641 359q244 0 303 111q16 31 16 67q0 84 -136 102q-44 6 -101 6h-426l-82 -286h426z" glyph-name="P" horiz-adv-x="1046" unicode="P"/>
<glyph d="M1196 435q0 -178 -150 -299q-58 -47 -132 -80l123 -161l-4 -4h-96l-103 136q-129 -39 -277 -39q-262 0 -391 115q-90 81 -90 200q0 176 147 295q166 135 450 145q22 1 44 1q260 0 389 -113q90 -80 90 -196zM864 121q154 68 209 190q25 55 25 113q0 133 -142 197 q-102 46 -259 46q-232 0 -383 -108q-126 -91 -139 -219q-1 -13 -1 -25q0 -142 149 -207q100 -43 252 -43q109 0 209 27l-156 205l3 4h96z" glyph-name="Q" horiz-adv-x="1220" unicode="Q"/>
<glyph d="M1053 558q0 -127 -126 -193q-87 -44 -221 -52l230 -309l-3 -4h-101l-226 312h-405l-89 -312h-97l207 722h564q207 0 255 -105q12 -27 12 -59zM666 389q200 0 266 87q24 33 24 73q0 66 -85 86q-45 10 -115 10h-459l-73 -256h442z" glyph-name="R" horiz-adv-x="1070" unicode="R"/>
<glyph d="M550 -12q-280 0 -475 82q-31 12 -56 26l28 79l3 1q201 -111 501 -111q202 0 304 59q59 36 60 83q0 67 -132 97q-53 12 -252 35q-215 25 -297 66q-87 45 -88 122q0 98 120 156q123 59 337 59q266 0 470 -82l-25 -77l-3 -1q-155 69 -376 81q-35 2 -68 2q-212 0 -309 -62 q-49 -32 -50 -72q0 -60 128 -88q46 -10 243 -32q221 -26 307 -70q89 -48 90 -130q0 -110 -145 -171q-124 -52 -315 -52z" glyph-name="S" horiz-adv-x="1101" unicode="S"/>
<glyph d="M1156 722l-22 -77h-452l-185 -645h-97l185 645h-460l22 77h1009z" glyph-name="T" horiz-adv-x="1049" unicode="T"/>
<glyph d="M129 398l93 324h97l-100 -348q-87 -308 261 -309q225 0 340 144q47 61 71 143l106 370h97l-102 -355q-73 -252 -268 -334q-107 -45 -257 -45q-261 0 -334 151q-49 102 -4 259z" glyph-name="U" unicode="U"/>
<glyph d="M1184 722l1 -4l-749 -718h-103l-208 718l3 4h104l175 -631l653 631h124z" glyph-name="V" horiz-adv-x="1060" unicode="V"/>
<glyph d="M1469 722l1 -3l-522 -719h-100l-85 616l-435 -616h-107l-96 718l3 4h94l79 -611l433 611h107l82 -611l436 611h110z" glyph-name="W" horiz-adv-x="1344" unicode="W"/>
<glyph d="M1070 718l-492 -349l315 -365l-3 -4h-113l-274 317l-447 -317h-134l-1 4l529 374l-294 340l3 4h114l251 -291l411 291h134z" glyph-name="X" horiz-adv-x="972" unicode="X"/>
<glyph d="M1109 722l1 -4l-578 -501l-62 -217h-97l62 217l-310 501l3 4h99l268 -431l495 431h119z" glyph-name="Y" horiz-adv-x="985" unicode="Y"/>
<glyph d="M1087 722l-19 -65l-868 -580h736l-22 -77h-899l19 65l870 580h-693l22 77h854z" glyph-name="Z" horiz-adv-x="1089" unicode="Z"/>
<glyph d="M886 561h86l-161 -561h-86l25 88q-130 -98 -348 -98q-273 0 -338 141q-19 40 -19 89q0 147 128 245q139 106 362 106q189 0 285 -83q21 -18 34 -37zM412 58q192 0 306 94q94 79 95 191q0 83 -97 127q-72 31 -178 31q-192 0 -308 -91q-94 -76 -95 -182q0 -116 140 -154 q59 -16 137 -16z" glyph-name="a" horiz-adv-x="977" unicode="a"/>
<glyph d="M598 572q222 0 302 -110q36 -49 36 -115q0 -149 -127 -249q-141 -109 -367 -109q-213 0 -298 98q-12 14 -20 28l-33 -115h-86l207 722h86l-77 -269q134 112 351 119h26zM434 59q200 0 317 93q93 75 94 181q0 103 -115 146q-65 24 -155 24q-194 0 -312 -93 q-98 -79 -99 -190q0 -91 105 -134q67 -27 165 -27z" glyph-name="b" horiz-adv-x="979" unicode="b"/>
<glyph d="M47 234q0 136 125 231q136 103 351 108h19q189 0 333 -87l-22 -72l-4 -1q-137 90 -311 90q-187 0 -303 -87q-97 -73 -98 -174q0 -110 116 -157q67 -27 160 -27q175 0 334 81q14 7 26 14l4 -1l-26 -90q-167 -74 -340 -74q-240 0 -325 119q-39 55 -39 127z" glyph-name="c" horiz-adv-x="896" unicode="c"/>
<glyph d="M931 722h86l-207 -722h-86l26 89q-133 -99 -350 -99q-305 0 -350 167q-7 28 -7 58q0 146 125 245q144 109 365 111q192 0 287 -84q20 -18 33 -37zM410 58q192 0 306 94q94 79 95 191q0 83 -97 127q-72 31 -178 31q-192 0 -308 -91q-94 -76 -95 -182q0 -116 140 -154 q59 -16 137 -16z" glyph-name="d" horiz-adv-x="975" unicode="d"/>
<glyph d="M870 257h-733q-23 -129 117 -176q69 -23 170 -23q185 0 352 89q12 7 23 13l4 -1l-25 -89q-164 -75 -333 -81q-19 -1 -39 -1q-230 0 -318 115q-42 55 -42 127q0 133 124 230q130 101 329 112q20 1 40 1q209 0 296 -100q71 -84 35 -216zM533 503q-201 0 -314 -102 q-35 -34 -58 -74h636q12 95 -88 143q-69 33 -176 33z" glyph-name="e" horiz-adv-x="927" unicode="e"/>
<glyph d="M551 742q58 0 106 -11l-19 -60l-7 -2q-37 7 -75 7q-137 0 -192 -76q-19 -25 -31 -59h233l-19 -70h-235l-135 -471h-86l135 471h-130l19 70h132q49 133 152 176q62 25 152 25z" glyph-name="f" horiz-adv-x="593" unicode="f"/>
<glyph d="M885 561h86l-138 -486q-59 -207 -236 -280q-113 -47 -284 -47q-225 0 -364 84l24 83l5 2q123 -99 348 -99q316 0 405 212q8 21 15 44l4 13q-135 -97 -347 -97q-283 0 -343 150q-15 37 -15 81q0 148 128 246q139 104 359 104q186 0 287 -82q21 -17 35 -36zM415 58 q186 0 300 91q95 78 96 191q0 92 -109 135q-69 26 -169 26q-193 0 -307 -92q-90 -74 -91 -178q0 -118 142 -157q59 -16 138 -16z" glyph-name="g" horiz-adv-x="972" unicode="g"/>
<glyph d="M595 573q208 0 262 -121q32 -74 1 -183l-77 -269h-86l72 251q67 228 -135 250q-23 2 -49 2q-195 0 -324 -128q-83 -84 -120 -207l-48 -168h-86l207 722h86l-87 -302q151 153 384 153z" glyph-name="h" horiz-adv-x="941" unicode="h"/>
<glyph d="M196 738h118l-27 -93h-118zM164 561h86l-161 -561h-86z" glyph-name="i" horiz-adv-x="256" unicode="i"/>
<glyph d="M196 738h118l-27 -93h-118zM-204 -248l19 66l5 4q113 -12 163 111q6 15 11 31l171 597h86l-173 -603q-62 -209 -243 -210q-23 0 -39 4z" glyph-name="j" horiz-adv-x="256" unicode="j"/>
<glyph d="M905 557l-442 -223l366 -330l-3 -4h-122l-321 294l-243 -123l-49 -171h-86l207 722h86l-129 -450l586 289h148z" glyph-name="k" horiz-adv-x="908" unicode="k"/>
<glyph d="M212 722h86l-207 -722h-86z" glyph-name="l" horiz-adv-x="256" unicode="l"/>
<glyph d="M1160 573q198 0 228 -140q15 -69 -12 -164l-77 -269h-86l72 251q53 180 -30 229q-40 23 -109 23q-166 0 -282 -117q-78 -79 -115 -196l-6 -24q-1 -1 -1 -2l-47 -164h-86l72 251q53 183 -34 231q-39 21 -105 21q-167 0 -283 -118q-75 -77 -112 -190l-56 -195h-86l161 561 h86l-37 -129q132 137 330 141h11q206 0 231 -152l2 -20q120 146 311 168q30 4 60 4z" glyph-name="m" horiz-adv-x="1459" unicode="m"/>
<glyph d="M595 573q208 0 262 -121q32 -74 1 -183l-77 -269h-86l72 251q67 228 -135 250q-23 2 -49 2q-192 0 -321 -125q-85 -84 -122 -206l-49 -172h-86l161 561h86l-40 -141q153 151 383 153z" glyph-name="n" horiz-adv-x="941" unicode="n"/>
<glyph d="M44 224q0 135 122 232q134 107 345 116q18 1 35 1q211 0 306 -97q55 -58 55 -137q0 -137 -123 -235q-134 -107 -346 -115q-17 -1 -32 -1q-218 0 -311 102q-51 56 -51 134zM817 331q0 100 -116 144q-69 26 -167 26q-187 0 -303 -91q-96 -76 -97 -178q0 -112 133 -153 q64 -19 151 -19q186 0 301 90q97 76 98 181z" glyph-name="o" horiz-adv-x="951" unicode="o"/>
<glyph d="M598 572q222 0 302 -110q36 -49 36 -115q0 -149 -127 -249q-141 -109 -367 -109q-208 0 -295 95q-14 15 -23 31l-100 -347h-86l228 793h86l-31 -108q134 112 351 119h26zM434 59q200 0 317 93q93 75 94 181q0 103 -115 146q-65 24 -155 24q-194 0 -312 -93 q-98 -79 -99 -190q0 -91 105 -134q67 -27 165 -27z" glyph-name="p" horiz-adv-x="979" unicode="p"/>
<glyph d="M887 561h86l-228 -793h-86l92 321q-131 -99 -349 -99q-273 0 -338 141q-19 40 -19 89q0 147 128 245q139 106 362 106q192 0 287 -84q20 -18 33 -37zM412 58q192 0 306 94q94 79 95 191q0 83 -97 127q-72 31 -178 31q-192 0 -308 -91q-94 -76 -95 -182q0 -116 140 -154 q59 -16 137 -16z" glyph-name="q" horiz-adv-x="978" unicode="q"/>
<glyph d="M559 572q35 0 63 -4l-20 -74l-6 -2q-32 5 -60 5q-213 0 -328 -176q-42 -64 -67 -147l-50 -174h-86l161 561h86l-39 -136q126 147 346 147z" glyph-name="r" horiz-adv-x="606" unicode="r"/>
<glyph d="M8 61l20 75l2 1q133 -64 319 -78q35 -2 68 -2q171 0 244 48q35 24 36 56q0 55 -115 78q-29 6 -196 27q-179 21 -238 65q-41 32 -42 79q0 95 154 137q94 26 221 26q197 0 354 -60l-25 -69l-3 -1q-152 60 -331 60q-171 0 -246 -43q-33 -21 -34 -46q0 -43 109 -61 q35 -7 120 -16q185 -19 256 -46q105 -42 106 -123q0 -100 -137 -147q-96 -33 -241 -33q-200 0 -401 73z" glyph-name="s" horiz-adv-x="884" unicode="s"/>
<glyph d="M307 491l-80 -277q-31 -108 31 -139q32 -15 90 -15h27l3 -3l-19 -67q-8 -1 -30 -1q-185 0 -198 132q-3 45 13 102l77 268h-136l20 70h136l36 125h86l-36 -125h196l-20 -70h-196z" glyph-name="t" horiz-adv-x="468" unicode="t"/>
<glyph d="M850 561h86l-161 -561h-86l40 138q-147 -145 -369 -150h-14q-195 0 -255 113q-41 82 -4 203l80 257h86l-79 -251q-72 -228 140 -250q21 -2 44 -2q192 0 321 125q85 84 122 206z" glyph-name="u" horiz-adv-x="941" unicode="u"/>
<glyph d="M919 561l1 -3l-582 -558h-96l-162 558l3 3h88l135 -487l506 487h107z" glyph-name="v" horiz-adv-x="840" unicode="v"/>
<glyph d="M1357 561l1 -3l-454 -558h-100l-108 481l-384 -481h-98l-134 558l3 3h85l112 -481l384 481h96l108 -482l393 482h96z" glyph-name="w" horiz-adv-x="1278" unicode="w"/>
<glyph d="M893 558l-427 -281l250 -273l-2 -4h-102l-212 233l-354 -233h-125l-1 3l431 283l-248 272l3 3h99l212 -231l351 231h124z" glyph-name="x" horiz-adv-x="813" unicode="x"/>
<glyph d="M966 561l1 -4l-669 -678q-88 -89 -155 -113q-51 -18 -127 -18h-30l19 67l5 4h22q73 0 129 42q30 22 69 63l78 79l-229 554l3 4h90l202 -490l481 490h111z" glyph-name="y" horiz-adv-x="888" unicode="y"/>
<glyph d="M893 561l-20 -69l-694 -422h587l-20 -70h-741l20 69l699 422h-562l20 70h711z" glyph-name="z" horiz-adv-x="911" unicode="z"/>
<glyph glyph-name="uni00A0" horiz-adv-x="300" unicode=" "/>
<glyph d="M881 0l-50 181h-597l-186 -181h-128l753 722h100l209 -722h-101zM311 256h499l-107 382z" glyph-name="Agrave" unicode="À"/>
<glyph d="M881 0l-50 181h-597l-186 -181h-128l753 722h100l209 -722h-101zM311 256h499l-107 382z" glyph-name="Aacute" unicode="Á"/>
<glyph d="M881 0l-50 181h-597l-186 -181h-128l753 722h100l209 -722h-101zM311 256h499l-107 382z" glyph-name="Acircumflex" unicode="Â"/>
<glyph d="M881 0l-50 181h-597l-186 -181h-128l753 722h100l209 -722h-101zM311 256h499l-107 382z" glyph-name="Atilde" unicode="Ã"/>
<glyph d="M881 0l-50 181h-597l-186 -181h-128l753 722h100l209 -722h-101zM311 256h499l-107 382z" glyph-name="Adieresis" unicode="Ä"/>
<glyph d="M881 0l-50 181h-597l-186 -181h-128l753 722h100l209 -722h-101zM311 256h499l-107 382z" glyph-name="Aring" unicode="Å"/>
<glyph d="M79 315q0 169 148 286q160 125 423 139q30 2 59 2q214 0 377 -83q36 -18 64 -38l-28 -77l-5 -1q-124 91 -319 115q-55 7 -109 7q-218 0 -368 -103q-126 -87 -144 -207q-3 -18 -3 -35q0 -140 139 -207q100 -48 251 -48q244 1 463 145l5 -2l-39 -109q-196 -111 -439 -111 q-280 0 -402 131q-73 80 -73 196z" glyph-name="Ccedilla" horiz-adv-x="1148" unicode="Ç"/>
<glyph d="M1066 645h-769l-70 -245h728l-25 -77h-725l-71 -246h772l-22 -77h-869l207 722h869z" glyph-name="Egrave" horiz-adv-x="1029" unicode="È"/>
<glyph d="M1066 645h-769l-70 -245h728l-25 -77h-725l-71 -246h772l-22 -77h-869l207 722h869z" glyph-name="Eacute" horiz-adv-x="1029" unicode="É"/>
<glyph d="M1066 645h-769l-70 -245h728l-25 -77h-725l-71 -246h772l-22 -77h-869l207 722h869z" glyph-name="Ecircumflex" horiz-adv-x="1029" unicode="Ê"/>
<glyph d="M1066 645h-769l-70 -245h728l-25 -77h-725l-71 -246h772l-22 -77h-869l207 722h869z" glyph-name="Edieresis" horiz-adv-x="1029" unicode="Ë"/>
<glyph d="M222 722h97l-207 -722h-97z" glyph-name="Igrave" horiz-adv-x="287" unicode="Ì"/>
<glyph d="M222 722h97l-207 -722h-97z" glyph-name="Iacute" horiz-adv-x="287" unicode="Í"/>
<glyph d="M222 722h97l-207 -722h-97z" glyph-name="Icircumflex" horiz-adv-x="287" unicode="Î"/>
<glyph d="M222 722h97l-207 -722h-97z" glyph-name="Idieresis" horiz-adv-x="287" unicode="Ï"/>
<glyph d="M1043 722h97l-207 -722h-98l-543 626l-180 -626h-97l207 722h102l540 -625z" glyph-name="Ntilde" horiz-adv-x="1108" unicode="Ñ"/>
<glyph d="M557 -12q-262 0 -391 115q-90 81 -90 200q0 176 147 295q166 135 450 145q22 1 44 1q260 0 389 -113q90 -80 90 -196q0 -177 -149 -299q-161 -131 -427 -146q-32 -2 -63 -2zM575 65q232 0 382 109q128 93 140 226q1 12 1 24q0 133 -142 197q-102 46 -259 46 q-232 0 -383 -108q-126 -91 -139 -219q-1 -13 -1 -25q0 -142 149 -207q100 -43 252 -43z" glyph-name="Ograve" horiz-adv-x="1222" unicode="Ò"/>
<glyph d="M557 -12q-262 0 -391 115q-90 81 -90 200q0 176 147 295q166 135 450 145q22 1 44 1q260 0 389 -113q90 -80 90 -196q0 -177 -149 -299q-161 -131 -427 -146q-32 -2 -63 -2zM575 65q232 0 382 109q128 93 140 226q1 12 1 24q0 133 -142 197q-102 46 -259 46 q-232 0 -383 -108q-126 -91 -139 -219q-1 -13 -1 -25q0 -142 149 -207q100 -43 252 -43z" glyph-name="Oacute" horiz-adv-x="1222" unicode="Ó"/>
<glyph d="M557 -12q-262 0 -391 115q-90 81 -90 200q0 176 147 295q166 135 450 145q22 1 44 1q260 0 389 -113q90 -80 90 -196q0 -177 -149 -299q-161 -131 -427 -146q-32 -2 -63 -2zM575 65q232 0 382 109q128 93 140 226q1 12 1 24q0 133 -142 197q-102 46 -259 46 q-232 0 -383 -108q-126 -91 -139 -219q-1 -13 -1 -25q0 -142 149 -207q100 -43 252 -43z" glyph-name="Ocircumflex" horiz-adv-x="1222" unicode="Ô"/>
<glyph d="M557 -12q-262 0 -391 115q-90 81 -90 200q0 176 147 295q166 135 450 145q22 1 44 1q260 0 389 -113q90 -80 90 -196q0 -177 -149 -299q-161 -131 -427 -146q-32 -2 -63 -2zM575 65q232 0 382 109q128 93 140 226q1 12 1 24q0 133 -142 197q-102 46 -259 46 q-232 0 -383 -108q-126 -91 -139 -219q-1 -13 -1 -25q0 -142 149 -207q100 -43 252 -43z" glyph-name="Otilde" horiz-adv-x="1222" unicode="Õ"/>
<glyph d="M557 -12q-262 0 -391 115q-90 81 -90 200q0 176 147 295q166 135 450 145q22 1 44 1q260 0 389 -113q90 -80 90 -196q0 -177 -149 -299q-161 -131 -427 -146q-32 -2 -63 -2zM575 65q232 0 382 109q128 93 140 226q1 12 1 24q0 133 -142 197q-102 46 -259 46 q-232 0 -383 -108q-126 -91 -139 -219q-1 -13 -1 -25q0 -142 149 -207q100 -43 252 -43z" glyph-name="Odieresis" horiz-adv-x="1222" unicode="Ö"/>
<glyph d="M557 -12q-262 0 -391 115q-90 81 -90 200q0 176 147 295q166 135 450 145q22 1 44 1q260 0 389 -113q90 -80 90 -196q0 -177 -149 -299q-161 -131 -427 -146q-32 -2 -63 -2zM575 65q232 0 382 109q128 93 140 226q1 12 1 24q0 133 -142 197q-102 46 -259 46 q-232 0 -383 -108q-126 -91 -139 -219q-1 -13 -1 -25q0 -142 149 -207q100 -43 252 -43z" glyph-name="Oslash" horiz-adv-x="1222" unicode="Ø"/>
<glyph d="M129 398l93 324h97l-100 -348q-87 -308 261 -309q225 0 340 144q47 61 71 143l106 370h97l-102 -355q-73 -252 -268 -334q-107 -45 -257 -45q-261 0 -334 151q-49 102 -4 259z" glyph-name="Ugrave" unicode="Ù"/>
<glyph d="M129 398l93 324h97l-100 -348q-87 -308 261 -309q225 0 340 144q47 61 71 143l106 370h97l-102 -355q-73 -252 -268 -334q-107 -45 -257 -45q-261 0 -334 151q-49 102 -4 259z" glyph-name="Uacute" unicode="Ú"/>
<glyph d="M129 398l93 324h97l-100 -348q-87 -308 261 -309q225 0 340 144q47 61 71 143l106 370h97l-102 -355q-73 -252 -268 -334q-107 -45 -257 -45q-261 0 -334 151q-49 102 -4 259z" glyph-name="Ucircumflex" unicode="Û"/>
<glyph d="M129 398l93 324h97l-100 -348q-87 -308 261 -309q225 0 340 144q47 61 71 143l106 370h97l-102 -355q-73 -252 -268 -334q-107 -45 -257 -45q-261 0 -334 151q-49 102 -4 259z" glyph-name="Udieresis" unicode="Ü"/>
<glyph d="M1109 722l1 -4l-578 -501l-62 -217h-97l62 217l-310 501l3 4h99l268 -431l495 431h119z" glyph-name="Yacute" horiz-adv-x="985" unicode="Ý"/>
<glyph d="M886 561h86l-161 -561h-86l25 88q-130 -98 -348 -98q-273 0 -338 141q-19 40 -19 89q0 147 128 245q139 106 362 106q189 0 285 -83q21 -18 34 -37zM412 58q192 0 306 94q94 79 95 191q0 83 -97 127q-72 31 -178 31q-192 0 -308 -91q-94 -76 -95 -182q0 -116 140 -154 q59 -16 137 -16z" glyph-name="agrave" horiz-adv-x="977" unicode="à"/>
<glyph d="M886 561h86l-161 -561h-86l25 88q-130 -98 -348 -98q-273 0 -338 141q-19 40 -19 89q0 147 128 245q139 106 362 106q189 0 285 -83q21 -18 34 -37zM412 58q192 0 306 94q94 79 95 191q0 83 -97 127q-72 31 -178 31q-192 0 -308 -91q-94 -76 -95 -182q0 -116 140 -154 q59 -16 137 -16z" glyph-name="aacute" horiz-adv-x="977" unicode="á"/>
<glyph d="M886 561h86l-161 -561h-86l25 88q-130 -98 -348 -98q-273 0 -338 141q-19 40 -19 89q0 147 128 245q139 106 362 106q189 0 285 -83q21 -18 34 -37zM412 58q192 0 306 94q94 79 95 191q0 83 -97 127q-72 31 -178 31q-192 0 -308 -91q-94 -76 -95 -182q0 -116 140 -154 q59 -16 137 -16z" glyph-name="acircumflex" horiz-adv-x="977" unicode="â"/>
<glyph d="M886 561h86l-161 -561h-86l25 88q-130 -98 -348 -98q-273 0 -338 141q-19 40 -19 89q0 147 128 245q139 106 362 106q189 0 285 -83q21 -18 34 -37zM412 58q192 0 306 94q94 79 95 191q0 83 -97 127q-72 31 -178 31q-192 0 -308 -91q-94 -76 -95 -182q0 -116 140 -154 q59 -16 137 -16z" glyph-name="atilde" horiz-adv-x="977" unicode="ã"/>
<glyph d="M886 561h86l-161 -561h-86l25 88q-130 -98 -348 -98q-273 0 -338 141q-19 40 -19 89q0 147 128 245q139 106 362 106q189 0 285 -83q21 -18 34 -37zM412 58q192 0 306 94q94 79 95 191q0 83 -97 127q-72 31 -178 31q-192 0 -308 -91q-94 -76 -95 -182q0 -116 140 -154 q59 -16 137 -16z" glyph-name="adieresis" horiz-adv-x="977" unicode="ä"/>
<glyph d="M886 561h86l-161 -561h-86l25 88q-130 -98 -348 -98q-273 0 -338 141q-19 40 -19 89q0 147 128 245q139 106 362 106q189 0 285 -83q21 -18 34 -37zM412 58q192 0 306 94q94 79 95 191q0 83 -97 127q-72 31 -178 31q-192 0 -308 -91q-94 -76 -95 -182q0 -116 140 -154 q59 -16 137 -16z" glyph-name="aring" horiz-adv-x="977" unicode="å"/>
<glyph d="M47 234q0 136 125 231q136 103 351 108h19q189 0 333 -87l-22 -72l-4 -1q-137 90 -311 90q-187 0 -303 -87q-97 -73 -98 -174q0 -110 116 -157q67 -27 160 -27q175 0 334 81q14 7 26 14l4 -1l-26 -90q-167 -74 -340 -74q-240 0 -325 119q-39 55 -39 127z" glyph-name="ccedilla" horiz-adv-x="896" unicode="ç"/>
<glyph d="M870 257h-733q-23 -129 117 -176q69 -23 170 -23q185 0 352 89q12 7 23 13l4 -1l-25 -89q-164 -75 -333 -81q-19 -1 -39 -1q-230 0 -318 115q-42 55 -42 127q0 133 124 230q130 101 329 112q20 1 40 1q209 0 296 -100q71 -84 35 -216zM533 503q-201 0 -314 -102 q-35 -34 -58 -74h636q12 95 -88 143q-69 33 -176 33z" glyph-name="egrave" horiz-adv-x="927" unicode="è"/>
<glyph d="M870 257h-733q-23 -129 117 -176q69 -23 170 -23q185 0 352 89q12 7 23 13l4 -1l-25 -89q-164 -75 -333 -81q-19 -1 -39 -1q-230 0 -318 115q-42 55 -42 127q0 133 124 230q130 101 329 112q20 1 40 1q209 0 296 -100q71 -84 35 -216zM533 503q-201 0 -314 -102 q-35 -34 -58 -74h636q12 95 -88 143q-69 33 -176 33z" glyph-name="eacute" horiz-adv-x="927" unicode="é"/>
<glyph d="M870 257h-733q-23 -129 117 -176q69 -23 170 -23q185 0 352 89q12 7 23 13l4 -1l-25 -89q-164 -75 -333 -81q-19 -1 -39 -1q-230 0 -318 115q-42 55 -42 127q0 133 124 230q130 101 329 112q20 1 40 1q209 0 296 -100q71 -84 35 -216zM533 503q-201 0 -314 -102 q-35 -34 -58 -74h636q12 95 -88 143q-69 33 -176 33z" glyph-name="ecircumflex" horiz-adv-x="927" unicode="ê"/>
<glyph d="M870 257h-733q-23 -129 117 -176q69 -23 170 -23q185 0 352 89q12 7 23 13l4 -1l-25 -89q-164 -75 -333 -81q-19 -1 -39 -1q-230 0 -318 115q-42 55 -42 127q0 133 124 230q130 101 329 112q20 1 40 1q209 0 296 -100q71 -84 35 -216zM533 503q-201 0 -314 -102 q-35 -34 -58 -74h636q12 95 -88 143q-69 33 -176 33z" glyph-name="edieresis" horiz-adv-x="927" unicode="ë"/>
<glyph d="M165 561h86l-161 -561h-86z" glyph-name="igrave" horiz-adv-x="256" unicode="ì"/>
<glyph d="M165 561h86l-161 -561h-86z" glyph-name="iacute" horiz-adv-x="256" unicode="í"/>
<glyph d="M165 561h86l-161 -561h-86z" glyph-name="icircumflex" horiz-adv-x="256" unicode="î"/>
<glyph d="M165 561h86l-161 -561h-86z" glyph-name="idieresis" horiz-adv-x="256" unicode="ï"/>
<glyph d="M595 573q208 0 262 -121q32 -74 1 -183l-77 -269h-86l72 251q67 228 -135 250q-23 2 -49 2q-192 0 -321 -125q-85 -84 -122 -206l-49 -172h-86l161 561h86l-40 -141q153 151 383 153z" glyph-name="ntilde" horiz-adv-x="941" unicode="ñ"/>
<glyph d="M44 224q0 135 122 232q134 107 345 116q18 1 35 1q211 0 306 -97q55 -58 55 -137q0 -137 -123 -235q-134 -107 -346 -115q-17 -1 -32 -1q-218 0 -311 102q-51 56 -51 134zM817 331q0 100 -116 144q-69 26 -167 26q-187 0 -303 -91q-96 -76 -97 -178q0 -112 133 -153 q64 -19 151 -19q186 0 301 90q97 76 98 181z" glyph-name="ograve" horiz-adv-x="951" unicode="ò"/>
<glyph d="M44 224q0 135 122 232q134 107 345 116q18 1 35 1q211 0 306 -97q55 -58 55 -137q0 -137 -123 -235q-134 -107 -346 -115q-17 -1 -32 -1q-218 0 -311 102q-51 56 -51 134zM817 331q0 100 -116 144q-69 26 -167 26q-187 0 -303 -91q-96 -76 -97 -178q0 -112 133 -153 q64 -19 151 -19q186 0 301 90q97 76 98 181z" glyph-name="oacute" horiz-adv-x="951" unicode="ó"/>
<glyph d="M44 224q0 135 122 232q134 107 345 116q18 1 35 1q211 0 306 -97q55 -58 55 -137q0 -137 -123 -235q-134 -107 -346 -115q-17 -1 -32 -1q-218 0 -311 102q-51 56 -51 134zM817 331q0 100 -116 144q-69 26 -167 26q-187 0 -303 -91q-96 -76 -97 -178q0 -112 133 -153 q64 -19 151 -19q186 0 301 90q97 76 98 181z" glyph-name="ocircumflex" horiz-adv-x="951" unicode="ô"/>
<glyph d="M44 224q0 135 122 232q134 107 345 116q18 1 35 1q211 0 306 -97q55 -58 55 -137q0 -137 -123 -235q-134 -107 -346 -115q-17 -1 -32 -1q-218 0 -311 102q-51 56 -51 134zM817 331q0 100 -116 144q-69 26 -167 26q-187 0 -303 -91q-96 -76 -97 -178q0 -112 133 -153 q64 -19 151 -19q186 0 301 90q97 76 98 181z" glyph-name="otilde" horiz-adv-x="951" unicode="õ"/>
<glyph d="M44 224q0 135 122 232q134 107 345 116q18 1 35 1q211 0 306 -97q55 -58 55 -137q0 -137 -123 -235q-134 -107 -346 -115q-17 -1 -32 -1q-218 0 -311 102q-51 56 -51 134zM817 331q0 100 -116 144q-69 26 -167 26q-187 0 -303 -91q-96 -76 -97 -178q0 -112 133 -153 q64 -19 151 -19q186 0 301 90q97 76 98 181z" glyph-name="odieresis" horiz-adv-x="951" unicode="ö"/>
<glyph d="M44 224q0 135 122 232q134 107 345 116q18 1 35 1q211 0 306 -97q55 -58 55 -137q0 -137 -123 -235q-134 -107 -346 -115q-17 -1 -32 -1q-218 0 -311 102q-51 56 -51 134zM817 331q0 100 -116 144q-69 26 -167 26q-187 0 -303 -91q-96 -76 -97 -178q0 -112 133 -153 q64 -19 151 -19q186 0 301 90q97 76 98 181z" glyph-name="oslash" horiz-adv-x="951" unicode="ø"/>
<glyph d="M850 561h86l-161 -561h-86l40 138q-147 -145 -369 -150h-14q-195 0 -255 113q-41 82 -4 203l80 257h86l-79 -251q-72 -228 140 -250q21 -2 44 -2q192 0 321 125q85 84 122 206z" glyph-name="ugrave" horiz-adv-x="941" unicode="ù"/>
<glyph d="M850 561h86l-161 -561h-86l40 138q-147 -145 -369 -150h-14q-195 0 -255 113q-41 82 -4 203l80 257h86l-79 -251q-72 -228 140 -250q21 -2 44 -2q192 0 321 125q85 84 122 206z" glyph-name="uacute" horiz-adv-x="941" unicode="ú"/>
<glyph d="M850 561h86l-161 -561h-86l40 138q-147 -145 -369 -150h-14q-195 0 -255 113q-41 82 -4 203l80 257h86l-79 -251q-72 -228 140 -250q21 -2 44 -2q192 0 321 125q85 84 122 206z" glyph-name="ucircumflex" horiz-adv-x="941" unicode="û"/>
<glyph d="M850 561h86l-161 -561h-86l40 138q-147 -145 -369 -150h-14q-195 0 -255 113q-41 82 -4 203l80 257h86l-79 -251q-72 -228 140 -250q21 -2 44 -2q192 0 321 125q85 84 122 206z" glyph-name="udieresis" horiz-adv-x="941" unicode="ü"/>
<glyph d="M966 561l1 -4l-669 -678q-88 -89 -155 -113q-51 -18 -127 -18h-30l19 67l5 4h22q73 0 129 42q30 22 69 63l78 79l-229 554l3 4h90l202 -490l481 490h111z" glyph-name="yacute" horiz-adv-x="888" unicode="ý"/>
</font>
</defs>
</svg>
