<?xml version="1.0" encoding="UTF-8"?>
<!DOCTYPE svg  PUBLIC '-//W3C//DTD SVG 1.1//EN'  'http://www.w3.org/Graphics/SVG/1.1/DTD/svg11.dtd'>
<svg version="1.1" xmlns="http://www.w3.org/2000/svg">
<defs>
<font id="PanoTrial-Bold" horiz-adv-x="909">
<font-face font-family="Pano Trial" font-stretch="extra-expanded" font-weight="700" ascent="768" bbox="-80 -252 1407 798" cap-height="722" descent="-232" panose-1="2 11 3 5 2 1 1 2 1 4" underline-position="-140" underline-thickness="110" unicode-range="U+0020-00FD" units-per-em="1000" x-height="573"/>
<missing-glyph/>
<glyph glyph-name="space" horiz-adv-x="322" unicode=" "/>
<glyph d="M51 177h199v-145l-133 -209h-67l57 177h-56v177z" glyph-name="comma" horiz-adv-x="300" unicode=","/>
<glyph d="M50 360h500v-134l-500 -1v135z" glyph-name="hyphen" horiz-adv-x="600" unicode="-"/>
<glyph d="M50 179h200v-179h-200v179z" glyph-name="period" horiz-adv-x="300" unicode="."/>
<glyph d="M40 365q0 190 158 292q132 85 343 85q264 0 398 -128q103 -98 103 -249q0 -190 -158 -292q-132 -85 -343 -85q-264 0 -398 128q-103 98 -103 249zM862 365q0 139 -137 195q-76 32 -184 32q-204 0 -283 -104q-38 -52 -38 -123q0 -139 137 -195q76 -32 184 -32 q204 0 283 104q38 52 38 123z" glyph-name="zero" horiz-adv-x="1082" unicode="0"/>
<glyph d="M334 544l-301 -122l-3 2v149l337 149h142v-722h-175v544z" glyph-name="one" horiz-adv-x="579" unicode="1"/>
<glyph d="M30 31q0 140 81 218q92 87 327 147q240 61 276 88q15 12 15 29q0 46 -99 67q-56 11 -131 11q-242 0 -416 -110q-8 -5 -14 -9l-6 3v163q175 105 440 105q405 -1 406 -229q0 -89 -73 -141q-81 -58 -294 -108q-203 -47 -246 -92q-10 -12 -15 -23h627v-150h-878v31z" glyph-name="two" horiz-adv-x="939" unicode="2"/>
<glyph d="M788 384q134 -48 135 -163q0 -125 -161 -186q-124 -47 -317 -47q-252 0 -425 95v165l5 3q170 -112 434 -112q237 0 277 71q7 13 7 26q-2 69 -186 69h-289v143h292q153 1 154 60q0 45 -103 68q-66 15 -155 15q-245 -1 -412 -113l-4 3v164q179 97 410 97q265 0 380 -90 q63 -50 64 -118q-2 -96 -106 -150z" glyph-name="three" horiz-adv-x="963" unicode="3"/>
<glyph d="M978 312v-143h-142v-169h-180v169h-626v114l647 439h159v-410h142zM316 312h340v231z" glyph-name="four" horiz-adv-x="998" unicode="4"/>
<glyph d="M555 498q296 0 382 -134q32 -49 32 -113q0 -172 -217 -233q-107 -30 -258 -30q-269 0 -461 104v170l8 3q193 -123 466 -123q260 0 280 95q2 8 2 15q0 102 -244 105h-15q-160 0 -307 -61l-36 -16l-157 101l81 341h798v-143h-661l-38 -151q145 58 259 67q38 3 86 3z" glyph-name="five" horiz-adv-x="999" unicode="5"/>
<glyph d="M40 341q0 236 200 337q128 64 324 64q206 0 356 -60v-156l-9 -2q-173 70 -354 70q-241 0 -306 -119q-7 -14 -11 -27q110 53 325 53q359 0 429 -168q15 -38 15 -82q0 -166 -203 -229q-110 -34 -270 -34q-411 0 -481 239q-15 52 -15 114zM829 256q0 105 -245 115 q-25 1 -51 1q-241 0 -283 -69q-11 -19 -11 -41q0 -109 261 -118q22 -1 45 -1q231 0 273 70q11 19 11 43z" glyph-name="six" horiz-adv-x="1039" unicode="6"/>
<glyph d="M630 578h-620v144h859v-129q-218 -158 -310 -302q-79 -122 -106 -291h-185q40 228 166 386q73 93 196 192z" glyph-name="seven" horiz-adv-x="879" unicode="7"/>
<glyph d="M825 387q143 -43 171 -121q8 -24 8 -52q0 -151 -228 -202q-106 -24 -254 -24q-378 0 -461 144q-21 38 -21 82q0 92 97 141q35 18 82 32q-126 40 -143 122q-3 15 -3 31q0 157 278 192q77 10 171 10q387 0 441 -153q8 -23 8 -49q0 -91 -104 -137q-19 -9 -42 -16zM522 595 q-263 -4 -269 -73q0 -70 218 -76q25 -1 51 -1q256 0 268 69q1 4 1 8q0 69 -241 73h-28zM522 138q277 0 300 77q2 8 2 16q0 82 -242 90q-29 1 -60 1q-287 0 -301 -81q-1 -6 -1 -10q0 -79 208 -91q43 -2 94 -2z" glyph-name="eight" horiz-adv-x="1044" unicode="8"/>
<glyph d="M104 47v157l9 2q168 -70 351 -70q244 0 314 122q7 12 12 24q-115 -53 -328 -53q-377 0 -425 192q-7 27 -7 56q0 157 190 224q118 41 294 41q356 0 446 -185q33 -69 33 -164q0 -220 -184 -326q-137 -79 -351 -79t-354 59zM800 469q0 95 -186 113q-51 5 -116 5 q-237 0 -278 -72q-10 -19 -10 -41q0 -73 98 -98q68 -18 193 -18q242 0 287 68q12 19 12 43z" glyph-name="nine" horiz-adv-x="1033" unicode="9"/>
<glyph d="M889 0l-85 145h-510l-90 -145h-204l460 722h196l437 -722h-204zM384 292h334l-162 277z" glyph-name="A" horiz-adv-x="1093" unicode="A"/>
<glyph d="M892 375q163 -34 177 -147q1 -12 1 -24q0 -160 -201 -194q-60 -10 -137 -10h-652v722h600q300 0 330 -147q3 -18 3 -37q-1 -115 -121 -163zM677 572h-407v-140h413q107 0 125 43q5 12 5 27q0 50 -56 63q-30 7 -80 7zM753 150q116 1 117 75q0 54 -65 67q-29 5 -76 5h-459 v-147h483z" glyph-name="B" horiz-adv-x="1110" unicode="B"/>
<glyph d="M40 365q0 196 177 296q144 81 376 81q240 0 430 -98v-162l-6 -1q-203 111 -406 111q-271 0 -352 -124q-29 -46 -29 -104q0 -143 166 -197q88 -29 215 -29q201 1 406 111l5 -1v-162q-177 -91 -378 -97q-20 -1 -40 -1q-326 0 -472 145q-92 94 -92 232z" glyph-name="C" horiz-adv-x="1103" unicode="C"/>
<glyph d="M592 722q299 0 434 -138q88 -90 88 -223q0 -188 -167 -284q-134 -77 -348 -77h-519v722h512zM583 150q278 0 327 139q11 32 11 72q0 162 -191 199q-63 12 -147 12h-313v-422h313z" glyph-name="D" horiz-adv-x="1154" unicode="D"/>
<glyph d="M964 575h-694v-142h650v-143h-650v-143h694v-147h-884v722h884v-147z" glyph-name="E" horiz-adv-x="1014" unicode="E"/>
<glyph d="M964 572h-694v-137h650v-147h-650v-288h-190v722h884v-150z" glyph-name="F" horiz-adv-x="1014" unicode="F"/>
<glyph d="M611 592q-271 0 -352 -124q-29 -46 -29 -104q0 -143 166 -197q88 -29 215 -29q110 0 221 33v131h-431v124h621v-340q-177 -91 -378 -97q-20 -1 -40 -1q-326 0 -472 145q-92 94 -92 232q0 196 177 296q144 81 376 81q240 0 430 -98v-162l-6 -1q-203 111 -406 111z" glyph-name="G" horiz-adv-x="1103" unicode="G"/>
<glyph d="M870 722h190v-722h-190v286h-600v-286h-190v722h190v-286h600v286z" glyph-name="H" horiz-adv-x="1140" unicode="H"/>
<glyph d="M80 722h190v-722h-190v722z" glyph-name="I" horiz-adv-x="350" unicode="I"/>
<glyph d="M80 18v158l6 3q75 -37 153 -37q164 0 191 145q6 33 6 71v364h190v-349q-2 -384 -377 -385q-105 0 -169 30z" glyph-name="J" horiz-adv-x="706" unicode="J"/>
<glyph d="M582 432l455 -428l-3 -4h-249l-350 333l-165 -110v-223h-190v722h190v-306l474 306h263l3 -4z" glyph-name="K" horiz-adv-x="1037" unicode="K"/>
<glyph d="M280 147h654v-147h-844v722h190v-575z" glyph-name="L" horiz-adv-x="984" unicode="L"/>
<glyph d="M1206 722v-722h-184v469l-290 -469h-178l-290 469v-469h-184v722h218l345 -552l345 552h218z" glyph-name="M" horiz-adv-x="1286" unicode="M"/>
<glyph d="M901 722h190v-722h-220l-601 513v-513h-190v722h200l621 -528v528z" glyph-name="N" horiz-adv-x="1171" unicode="N"/>
<glyph d="M40 365q0 199 183 298q145 79 380 79q324 0 469 -144q94 -94 94 -233q0 -199 -183 -298q-145 -79 -380 -79q-324 0 -469 144q-94 94 -94 233zM976 365q0 136 -150 193q-90 34 -223 34q-254 0 -339 -116q-34 -48 -34 -111q0 -136 150 -193q90 -34 223 -34q254 0 339 116 q34 48 34 111z" glyph-name="O" horiz-adv-x="1206" unicode="O"/>
<glyph d="M632 722q284 0 360 -144q24 -48 24 -107q0 -170 -184 -226q-82 -25 -195 -25h-367v-220h-190v722h552zM627 370q141 0 177 42q19 23 19 59q0 69 -73 89q-44 12 -123 12h-357v-202h357z" glyph-name="P" horiz-adv-x="1056" unicode="P"/>
<glyph d="M1011 83l156 -149l-4 -4h-228l-89 85q-106 -27 -243 -27q-324 0 -469 144q-94 94 -94 233q0 199 183 298q145 79 380 79q324 0 469 -144q94 -94 94 -233q-1 -181 -155 -282zM603 138q59 0 107 6l-153 147l4 4h228l97 -93q89 60 90 163q0 136 -150 193q-90 34 -223 34 q-254 0 -339 -116q-34 -48 -34 -111q0 -136 150 -193q90 -34 223 -34z" glyph-name="Q" horiz-adv-x="1207" unicode="Q"/>
<glyph d="M775 246l261 -242l-3 -4h-231l-242 235h-290v-235h-190v722h556q273 0 350 -136q27 -47 27 -108q0 -159 -170 -215q-32 -11 -68 -17zM270 572v-187h361q143 0 177 44q15 20 15 49q0 66 -77 84q-42 10 -115 10h-361z" glyph-name="R" horiz-adv-x="1076" unicode="R"/>
<glyph d="M59 49v160l6 3q199 -73 476 -74q283 0 301 74q1 5 1 9q0 45 -118 59q-24 2 -220 12q-242 12 -342 62q-107 55 -108 163q0 173 287 214q83 12 188 12q235 0 431 -58v-152l-6 -2q-209 62 -421 62q-288 0 -289 -70q0 -45 118 -60q25 -3 222 -13q241 -13 341 -63 q106 -55 107 -161q0 -141 -154 -196q-120 -42 -349 -42q-279 0 -471 61z" glyph-name="S" horiz-adv-x="1083" unicode="S"/>
<glyph d="M1059 722v-147h-425v-575h-190v575h-424v147h1039z" glyph-name="T" horiz-adv-x="1079" unicode="T"/>
<glyph d="M80 391v331h190v-345q2 -238 259 -239q258 2 259 239v345h190v-331q0 -373 -384 -401q-32 -2 -65 -2q-424 0 -448 358q-1 22 -1 45z" glyph-name="U" horiz-adv-x="1058" unicode="U"/>
<glyph d="M1085 722l3 -4l-435 -718h-196l-457 718l3 4h200l350 -561l333 561h199z" glyph-name="V" horiz-adv-x="1088" unicode="V"/>
<glyph d="M1367 722l3 -4l-300 -718h-185l-200 510l-200 -510h-185l-300 718l3 4h196l198 -507l198 507h181l198 -506l199 506h194z" glyph-name="W" horiz-adv-x="1370" unicode="W"/>
<glyph d="M622 367l388 -363l-3 -4h-228l-275 257l-275 -257h-226l-3 4l387 362l-377 352l3 4h228l264 -246l264 246h226l3 -4z" glyph-name="X" horiz-adv-x="1010" unicode="X"/>
<glyph d="M1035 722l3 -4l-424 -470v-248h-190v248l-424 470l3 4h217l299 -339l300 339h216z" glyph-name="Y" horiz-adv-x="1038" unicode="Y"/>
<glyph d="M400 150h599v-150h-919v114l608 458h-587v150h887v-114z" glyph-name="Z" horiz-adv-x="1079" unicode="Z"/>
<glyph d="M473 585q368 -4 371 -220v-365h-170v92q-98 -96 -285 -103q-18 -1 -36 -1q-305 0 -317 169q-1 8 -1 15q0 110 134 153q80 25 214 32l291 15q-8 78 -213 78q-206 0 -360 -94q-4 -2 -7 -4l-3 2v155q161 76 382 76zM374 123q200 0 271 67q29 28 29 61v9l-315 -17 q-137 -8 -138 -63q0 -46 94 -55q26 -2 59 -2z" glyph-name="a" unicode="a"/>
<glyph d="M551 585q203 0 311 -106q80 -81 80 -199q0 -158 -141 -236q-102 -56 -257 -56q-190 1 -289 85v-73h-185v722h185v-235q105 98 296 98zM506 123q195 0 240 105q11 27 11 59q0 118 -139 151q-49 12 -112 12q-199 0 -241 -107q-10 -26 -10 -56q0 -114 130 -150 q53 -14 121 -14z" glyph-name="b" horiz-adv-x="977" unicode="b"/>
<glyph d="M35 286q0 152 139 232q115 67 298 67q188 0 339 -78v-168l-4 -1q-150 104 -335 104q-220 0 -248 -122q-4 -16 -4 -34q0 -130 181 -151q34 -4 71 -4q189 1 335 103l4 -1v-167q-152 -78 -339 -78q-247 0 -363 116q-74 75 -74 182z" glyph-name="c" horiz-adv-x="881" unicode="c"/>
<glyph d="M722 722h185v-722h-185v73q-100 -85 -289 -85q-228 0 -333 114q-65 73 -65 178q0 151 125 235q105 70 266 70q192 -1 296 -98v235zM471 123q191 0 238 101q13 29 13 63q0 118 -139 151q-49 12 -112 12q-199 0 -241 -107q-10 -26 -10 -56q0 -116 134 -151q51 -13 117 -13z " glyph-name="d" horiz-adv-x="977" unicode="d"/>
<glyph d="M876 286v-37h-653q32 -118 266 -118q165 0 283 65q27 15 54 33l4 -3v-160q-152 -78 -344 -78q-269 0 -384 125q-67 73 -67 175q0 150 136 231q113 66 290 66q241 0 349 -119q66 -74 66 -180zM463 457q-176 0 -234 -94q-2 -2 -3 -4h469q-53 97 -232 98z" glyph-name="e" horiz-adv-x="911" unicode="e"/>
<glyph d="M489 615q-119 0 -140 -57q-6 -17 -6 -37h227v-116h-227v-405h-185v405h-133v116h133q12 174 185 211q51 10 114 10q56 0 113 -10v-123l-7 -2q-27 8 -74 8z" glyph-name="f" horiz-adv-x="620" unicode="f"/>
<glyph d="M722 573h185v-496q-4 -253 -267 -311q-84 -18 -195 -18q-209 0 -355 78v166l5 2q160 -109 356 -110q214 0 260 113q10 27 11 57v19q-100 -85 -289 -85q-228 0 -333 114q-65 73 -65 178q0 151 125 235q105 70 266 70q192 -1 296 -98v86zM471 123q191 0 238 101 q13 29 13 63q0 118 -139 151q-49 12 -112 12q-199 0 -241 -107q-10 -26 -10 -56q0 -116 134 -151q51 -13 117 -13z" glyph-name="g" horiz-adv-x="977" unicode="g"/>
<glyph d="M544 585q204 0 294 -120q54 -73 54 -177v-288h-185v262q-2 189 -211 190q-178 0 -226 -131q-15 -43 -15 -96v-225h-185v722h185v-237q105 100 289 100z" glyph-name="h" horiz-adv-x="957" unicode="h"/>
<glyph d="M56 798h213v-156h-213v156zM70 0v573h185v-573h-185z" glyph-name="i" horiz-adv-x="325" unicode="i"/>
<glyph d="M51 798h213v-156h-213v156zM-80 -248v137l6 4q88 -7 116 28q24 33 24 117v535h184v-539q0 -179 -127 -250q-67 -36 -159 -36q-26 0 -44 4z" glyph-name="j" horiz-adv-x="315" unicode="j"/>
<glyph d="M507 334l400 -330l-3 -4h-252l-278 240l-119 -84v-156h-185v722h185v-384l339 235h243l3 -4z" glyph-name="k" horiz-adv-x="907" unicode="k"/>
<glyph d="M70 722h185v-722h-185v722z" glyph-name="l" horiz-adv-x="325" unicode="l"/>
<glyph d="M1090 585q191 0 271 -123q46 -70 46 -170v-292h-185v262q0 137 -89 173q-39 15 -96 15q-169 0 -202 -139q-9 -38 -9 -86v-225h-185v262q0 150 -108 180q-32 8 -71 8q-206 -2 -207 -225v-225h-185v573h185v-91q98 101 261 103q178 0 259 -116q6 -8 10 -15q80 105 238 127 q33 4 67 4z" glyph-name="m" horiz-adv-x="1472" unicode="m"/>
<glyph d="M544 585q247 0 320 -158q28 -61 28 -139v-288h-185v240q0 151 -97 191q-44 19 -112 19q-242 -2 -243 -247v-203h-185v573h185v-93q100 105 289 105z" glyph-name="n" horiz-adv-x="957" unicode="n"/>
<glyph d="M35 286q0 151 138 232q115 67 297 67q243 0 359 -113q78 -76 78 -186q0 -149 -137 -230q-116 -68 -300 -68q-243 0 -359 114q-76 76 -76 184zM722 286q0 125 -153 155q-44 9 -99 9q-205 0 -243 -114q-7 -24 -7 -50q0 -126 154 -155q44 -8 96 -8q217 0 247 124q5 19 5 39z " glyph-name="o" horiz-adv-x="942" unicode="o"/>
<glyph d="M551 585q203 0 311 -106q80 -81 80 -199q0 -158 -141 -236q-102 -56 -257 -56q-190 1 -289 85v-305h-185v805h185v-86q105 98 296 98zM506 123q195 0 240 105q11 27 11 59q0 118 -139 151q-49 12 -112 12q-199 0 -241 -107q-10 -26 -10 -56q0 -114 130 -150 q53 -14 121 -14z" glyph-name="p" horiz-adv-x="977" unicode="p"/>
<glyph d="M722 573h185v-805h-185v305q-100 -85 -289 -85q-228 0 -333 114q-65 73 -65 178q0 151 125 235q105 70 266 70q192 -1 296 -98v86zM471 123q191 0 238 101q13 29 13 63q0 118 -139 151q-49 12 -112 12q-199 0 -241 -107q-10 -26 -10 -56q0 -116 134 -151q51 -13 117 -13z " glyph-name="q" horiz-adv-x="977" unicode="q"/>
<glyph d="M542 585q36 0 75 -5v-150l-5 -2q-44 11 -105 11q-190 0 -238 -142q-14 -43 -14 -96v-201h-185v573h185v-88q99 96 275 100h12z" glyph-name="r" horiz-adv-x="667" unicode="r"/>
<glyph d="M53 44v141l5 2q173 -71 383 -73h15q179 0 203 37q6 9 6 19q0 33 -105 43q-29 3 -98 6q-196 11 -278 36q-133 44 -134 145q2 185 388 185q193 0 353 -46v-137l-7 -2q-173 58 -370 58q-158 0 -176 -33q-3 -7 -3 -13q0 -32 106 -42q28 -3 95 -6q198 -11 280 -37 q133 -43 134 -144q-2 -195 -389 -196q-225 0 -388 50q-11 4 -20 7z" glyph-name="s" horiz-adv-x="895" unicode="s"/>
<glyph d="M483 445h-167v-199q0 -88 55 -111q30 -13 81 -13h26l5 -3v-129q-32 -2 -53 -2q-228 0 -281 140q-18 49 -18 114v203h-121v116h121v131h185v-131h167v-116z" glyph-name="t" horiz-adv-x="493" unicode="t"/>
<glyph d="M702 573h185v-573h-185v88q-105 -100 -291 -100q-229 0 -309 153q-37 71 -37 168v264h185v-238q0 -179 147 -207q29 -5 63 -5q235 0 242 240v15v195z" glyph-name="u" horiz-adv-x="957" unicode="u"/>
<glyph d="M906 573l3 -4l-352 -569h-204l-353 569l3 4h199l253 -434l254 434h197z" glyph-name="v" unicode="v"/>
<glyph d="M1274 573l3 -4l-278 -569h-187l-175 386l-175 -386h-184l-278 569l3 4h201l174 -394l172 394h178l171 -395l176 395h199z" glyph-name="w" horiz-adv-x="1277" unicode="w"/>
<glyph d="M318 293l-304 276l3 4h229l190 -174l190 174h229l3 -4l-304 -276l318 -289l-3 -4h-229l-204 187l-204 -187h-229l-3 4z" glyph-name="x" horiz-adv-x="872" unicode="x"/>
<glyph d="M910 573l3 -4l-418 -670q-66 -106 -160 -136q-51 -15 -119 -15h-42v135l6 4h20q80 0 116 31q22 20 47 62l12 20h-1l-374 569l3 4h206l258 -402l249 402h194z" glyph-name="y" horiz-adv-x="913" unicode="y"/>
<glyph d="M364 135h489v-135h-783v115l475 323h-459v135h753v-115z" glyph-name="z" horiz-adv-x="923" unicode="z"/>
<glyph glyph-name="uni00A0" horiz-adv-x="322" unicode=" "/>
<glyph d="M889 0l-85 145h-510l-90 -145h-204l460 722h196l437 -722h-204zM384 292h334l-162 277z" glyph-name="Agrave" horiz-adv-x="1093" unicode="À"/>
<glyph d="M889 0l-85 145h-510l-90 -145h-204l460 722h196l437 -722h-204zM384 292h334l-162 277z" glyph-name="Aacute" horiz-adv-x="1093" unicode="Á"/>
<glyph d="M889 0l-85 145h-510l-90 -145h-204l460 722h196l437 -722h-204zM384 292h334l-162 277z" glyph-name="Acircumflex" horiz-adv-x="1093" unicode="Â"/>
<glyph d="M889 0l-85 145h-510l-90 -145h-204l460 722h196l437 -722h-204zM384 292h334l-162 277z" glyph-name="Atilde" horiz-adv-x="1093" unicode="Ã"/>
<glyph d="M889 0l-85 145h-510l-90 -145h-204l460 722h196l437 -722h-204zM384 292h334l-162 277z" glyph-name="Adieresis" horiz-adv-x="1093" unicode="Ä"/>
<glyph d="M889 0l-85 145h-510l-90 -145h-204l460 722h196l437 -722h-204zM384 292h334l-162 277z" glyph-name="Aring" horiz-adv-x="1093" unicode="Å"/>
<glyph d="M40 365q0 196 177 296q144 81 376 81q240 0 430 -98v-162l-6 -1q-203 111 -406 111q-271 0 -352 -124q-29 -46 -29 -104q0 -143 166 -197q88 -29 215 -29q201 1 406 111l5 -1v-162q-177 -91 -378 -97q-20 -1 -40 -1q-326 0 -472 145q-92 94 -92 232z" glyph-name="Ccedilla" horiz-adv-x="1103" unicode="Ç"/>
<glyph d="M964 575h-694v-142h650v-143h-650v-143h694v-147h-884v722h884v-147z" glyph-name="Egrave" horiz-adv-x="1014" unicode="È"/>
<glyph d="M964 575h-694v-142h650v-143h-650v-143h694v-147h-884v722h884v-147z" glyph-name="Eacute" horiz-adv-x="1014" unicode="É"/>
<glyph d="M964 575h-694v-142h650v-143h-650v-143h694v-147h-884v722h884v-147z" glyph-name="Ecircumflex" horiz-adv-x="1014" unicode="Ê"/>
<glyph d="M964 575h-694v-142h650v-143h-650v-143h694v-147h-884v722h884v-147z" glyph-name="Edieresis" horiz-adv-x="1014" unicode="Ë"/>
<glyph d="M80 722h190v-722h-190v722z" glyph-name="Igrave" horiz-adv-x="350" unicode="Ì"/>
<glyph d="M80 722h190v-722h-190v722z" glyph-name="Iacute" horiz-adv-x="350" unicode="Í"/>
<glyph d="M80 722h190v-722h-190v722z" glyph-name="Icircumflex" horiz-adv-x="350" unicode="Î"/>
<glyph d="M80 722h190v-722h-190v722z" glyph-name="Idieresis" horiz-adv-x="350" unicode="Ï"/>
<glyph d="M901 722h190v-722h-220l-601 513v-513h-190v722h200l621 -528v528z" glyph-name="Ntilde" horiz-adv-x="1171" unicode="Ñ"/>
<glyph d="M40 365q0 199 183 298q145 79 380 79q324 0 469 -144q94 -94 94 -233q0 -199 -183 -298q-145 -79 -380 -79q-324 0 -469 144q-94 94 -94 233zM976 365q0 136 -150 193q-90 34 -223 34q-254 0 -339 -116q-34 -48 -34 -111q0 -136 150 -193q90 -34 223 -34q254 0 339 116 q34 48 34 111z" glyph-name="Ograve" horiz-adv-x="1206" unicode="Ò"/>
<glyph d="M40 365q0 199 183 298q145 79 380 79q324 0 469 -144q94 -94 94 -233q0 -199 -183 -298q-145 -79 -380 -79q-324 0 -469 144q-94 94 -94 233zM976 365q0 136 -150 193q-90 34 -223 34q-254 0 -339 -116q-34 -48 -34 -111q0 -136 150 -193q90 -34 223 -34q254 0 339 116 q34 48 34 111z" glyph-name="Oacute" horiz-adv-x="1206" unicode="Ó"/>
<glyph d="M40 365q0 199 183 298q145 79 380 79q324 0 469 -144q94 -94 94 -233q0 -199 -183 -298q-145 -79 -380 -79q-324 0 -469 144q-94 94 -94 233zM976 365q0 136 -150 193q-90 34 -223 34q-254 0 -339 -116q-34 -48 -34 -111q0 -136 150 -193q90 -34 223 -34q254 0 339 116 q34 48 34 111z" glyph-name="Ocircumflex" horiz-adv-x="1206" unicode="Ô"/>
<glyph d="M40 365q0 199 183 298q145 79 380 79q324 0 469 -144q94 -94 94 -233q0 -199 -183 -298q-145 -79 -380 -79q-324 0 -469 144q-94 94 -94 233zM976 365q0 136 -150 193q-90 34 -223 34q-254 0 -339 -116q-34 -48 -34 -111q0 -136 150 -193q90 -34 223 -34q254 0 339 116 q34 48 34 111z" glyph-name="Otilde" horiz-adv-x="1206" unicode="Õ"/>
<glyph d="M40 365q0 199 183 298q145 79 380 79q324 0 469 -144q94 -94 94 -233q0 -199 -183 -298q-145 -79 -380 -79q-324 0 -469 144q-94 94 -94 233zM976 365q0 136 -150 193q-90 34 -223 34q-254 0 -339 -116q-34 -48 -34 -111q0 -136 150 -193q90 -34 223 -34q254 0 339 116 q34 48 34 111z" glyph-name="Odieresis" horiz-adv-x="1206" unicode="Ö"/>
<glyph d="M40 365q0 199 183 298q145 79 380 79q324 0 469 -144q94 -94 94 -233q0 -199 -183 -298q-145 -79 -380 -79q-324 0 -469 144q-94 94 -94 233zM976 365q0 136 -150 193q-90 34 -223 34q-254 0 -339 -116q-34 -48 -34 -111q0 -136 150 -193q90 -34 223 -34q254 0 339 116 q34 48 34 111z" glyph-name="Oslash" horiz-adv-x="1206" unicode="Ø"/>
<glyph d="M80 391v331h190v-345q2 -238 259 -239q258 2 259 239v345h190v-331q0 -373 -384 -401q-32 -2 -65 -2q-424 0 -448 358q-1 22 -1 45z" glyph-name="Ugrave" horiz-adv-x="1058" unicode="Ù"/>
<glyph d="M80 391v331h190v-345q2 -238 259 -239q258 2 259 239v345h190v-331q0 -373 -384 -401q-32 -2 -65 -2q-424 0 -448 358q-1 22 -1 45z" glyph-name="Uacute" horiz-adv-x="1058" unicode="Ú"/>
<glyph d="M80 391v331h190v-345q2 -238 259 -239q258 2 259 239v345h190v-331q0 -373 -384 -401q-32 -2 -65 -2q-424 0 -448 358q-1 22 -1 45z" glyph-name="Ucircumflex" horiz-adv-x="1058" unicode="Û"/>
<glyph d="M80 391v331h190v-345q2 -238 259 -239q258 2 259 239v345h190v-331q0 -373 -384 -401q-32 -2 -65 -2q-424 0 -448 358q-1 22 -1 45z" glyph-name="Udieresis" horiz-adv-x="1058" unicode="Ü"/>
<glyph d="M1035 722l3 -4l-424 -470v-248h-190v248l-424 470l3 4h217l299 -339l300 339h216z" glyph-name="Yacute" horiz-adv-x="1038" unicode="Ý"/>
<glyph d="M473 585q368 -4 371 -220v-365h-170v92q-98 -96 -285 -103q-18 -1 -36 -1q-305 0 -317 169q-1 8 -1 15q0 110 134 153q80 25 214 32l291 15q-8 78 -213 78q-206 0 -360 -94q-4 -2 -7 -4l-3 2v155q161 76 382 76zM374 123q200 0 271 67q29 28 29 61v9l-315 -17 q-137 -8 -138 -63q0 -46 94 -55q26 -2 59 -2z" glyph-name="agrave" unicode="à"/>
<glyph d="M473 585q368 -4 371 -220v-365h-170v92q-98 -96 -285 -103q-18 -1 -36 -1q-305 0 -317 169q-1 8 -1 15q0 110 134 153q80 25 214 32l291 15q-8 78 -213 78q-206 0 -360 -94q-4 -2 -7 -4l-3 2v155q161 76 382 76zM374 123q200 0 271 67q29 28 29 61v9l-315 -17 q-137 -8 -138 -63q0 -46 94 -55q26 -2 59 -2z" glyph-name="aacute" unicode="á"/>
<glyph d="M473 585q368 -4 371 -220v-365h-170v92q-98 -96 -285 -103q-18 -1 -36 -1q-305 0 -317 169q-1 8 -1 15q0 110 134 153q80 25 214 32l291 15q-8 78 -213 78q-206 0 -360 -94q-4 -2 -7 -4l-3 2v155q161 76 382 76zM374 123q200 0 271 67q29 28 29 61v9l-315 -17 q-137 -8 -138 -63q0 -46 94 -55q26 -2 59 -2z" glyph-name="acircumflex" unicode="â"/>
<glyph d="M473 585q368 -4 371 -220v-365h-170v92q-98 -96 -285 -103q-18 -1 -36 -1q-305 0 -317 169q-1 8 -1 15q0 110 134 153q80 25 214 32l291 15q-8 78 -213 78q-206 0 -360 -94q-4 -2 -7 -4l-3 2v155q161 76 382 76zM374 123q200 0 271 67q29 28 29 61v9l-315 -17 q-137 -8 -138 -63q0 -46 94 -55q26 -2 59 -2z" glyph-name="atilde" unicode="ã"/>
<glyph d="M473 585q368 -4 371 -220v-365h-170v92q-98 -96 -285 -103q-18 -1 -36 -1q-305 0 -317 169q-1 8 -1 15q0 110 134 153q80 25 214 32l291 15q-8 78 -213 78q-206 0 -360 -94q-4 -2 -7 -4l-3 2v155q161 76 382 76zM374 123q200 0 271 67q29 28 29 61v9l-315 -17 q-137 -8 -138 -63q0 -46 94 -55q26 -2 59 -2z" glyph-name="adieresis" unicode="ä"/>
<glyph d="M473 585q368 -4 371 -220v-365h-170v92q-98 -96 -285 -103q-18 -1 -36 -1q-305 0 -317 169q-1 8 -1 15q0 110 134 153q80 25 214 32l291 15q-8 78 -213 78q-206 0 -360 -94q-4 -2 -7 -4l-3 2v155q161 76 382 76zM374 123q200 0 271 67q29 28 29 61v9l-315 -17 q-137 -8 -138 -63q0 -46 94 -55q26 -2 59 -2z" glyph-name="aring" unicode="å"/>
<glyph d="M35 286q0 152 139 232q115 67 298 67q188 0 339 -78v-168l-4 -1q-150 104 -335 104q-220 0 -248 -122q-4 -16 -4 -34q0 -130 181 -151q34 -4 71 -4q189 1 335 103l4 -1v-167q-152 -78 -339 -78q-247 0 -363 116q-74 75 -74 182z" glyph-name="ccedilla" horiz-adv-x="881" unicode="ç"/>
<glyph d="M876 286v-37h-653q32 -118 266 -118q165 0 283 65q27 15 54 33l4 -3v-160q-152 -78 -344 -78q-269 0 -384 125q-67 73 -67 175q0 150 136 231q113 66 290 66q241 0 349 -119q66 -74 66 -180zM463 457q-176 0 -234 -94q-2 -2 -3 -4h469q-53 97 -232 98z" glyph-name="egrave" horiz-adv-x="911" unicode="è"/>
<glyph d="M876 286v-37h-653q32 -118 266 -118q165 0 283 65q27 15 54 33l4 -3v-160q-152 -78 -344 -78q-269 0 -384 125q-67 73 -67 175q0 150 136 231q113 66 290 66q241 0 349 -119q66 -74 66 -180zM463 457q-176 0 -234 -94q-2 -2 -3 -4h469q-53 97 -232 98z" glyph-name="eacute" horiz-adv-x="911" unicode="é"/>
<glyph d="M876 286v-37h-653q32 -118 266 -118q165 0 283 65q27 15 54 33l4 -3v-160q-152 -78 -344 -78q-269 0 -384 125q-67 73 -67 175q0 150 136 231q113 66 290 66q241 0 349 -119q66 -74 66 -180zM463 457q-176 0 -234 -94q-2 -2 -3 -4h469q-53 97 -232 98z" glyph-name="ecircumflex" horiz-adv-x="911" unicode="ê"/>
<glyph d="M876 286v-37h-653q32 -118 266 -118q165 0 283 65q27 15 54 33l4 -3v-160q-152 -78 -344 -78q-269 0 -384 125q-67 73 -67 175q0 150 136 231q113 66 290 66q241 0 349 -119q66 -74 66 -180zM463 457q-176 0 -234 -94q-2 -2 -3 -4h469q-53 97 -232 98z" glyph-name="edieresis" horiz-adv-x="911" unicode="ë"/>
<glyph d="M56 798h213v-156h-213v156zM70 0v573h185v-573h-185z" glyph-name="igrave" horiz-adv-x="325" unicode="ì"/>
<glyph d="M56 798h213v-156h-213v156zM70 0v573h185v-573h-185z" glyph-name="iacute" horiz-adv-x="325" unicode="í"/>
<glyph d="M56 798h213v-156h-213v156zM70 0v573h185v-573h-185z" glyph-name="icircumflex" horiz-adv-x="325" unicode="î"/>
<glyph d="M56 798h213v-156h-213v156zM70 0v573h185v-573h-185z" glyph-name="idieresis" horiz-adv-x="325" unicode="ï"/>
<glyph d="M544 585q247 0 320 -158q28 -61 28 -139v-288h-185v240q0 151 -97 191q-44 19 -112 19q-242 -2 -243 -247v-203h-185v573h185v-93q100 105 289 105z" glyph-name="ntilde" horiz-adv-x="957" unicode="ñ"/>
<glyph d="M35 286q0 151 138 232q115 67 297 67q243 0 359 -113q78 -76 78 -186q0 -149 -137 -230q-116 -68 -300 -68q-243 0 -359 114q-76 76 -76 184zM722 286q0 125 -153 155q-44 9 -99 9q-205 0 -243 -114q-7 -24 -7 -50q0 -126 154 -155q44 -8 96 -8q217 0 247 124q5 19 5 39z " glyph-name="ograve" horiz-adv-x="942" unicode="ò"/>
<glyph d="M35 286q0 151 138 232q115 67 297 67q243 0 359 -113q78 -76 78 -186q0 -149 -137 -230q-116 -68 -300 -68q-243 0 -359 114q-76 76 -76 184zM722 286q0 125 -153 155q-44 9 -99 9q-205 0 -243 -114q-7 -24 -7 -50q0 -126 154 -155q44 -8 96 -8q217 0 247 124q5 19 5 39z " glyph-name="oacute" horiz-adv-x="942" unicode="ó"/>
<glyph d="M35 286q0 151 138 232q115 67 297 67q243 0 359 -113q78 -76 78 -186q0 -149 -137 -230q-116 -68 -300 -68q-243 0 -359 114q-76 76 -76 184zM722 286q0 125 -153 155q-44 9 -99 9q-205 0 -243 -114q-7 -24 -7 -50q0 -126 154 -155q44 -8 96 -8q217 0 247 124q5 19 5 39z " glyph-name="ocircumflex" horiz-adv-x="942" unicode="ô"/>
<glyph d="M35 286q0 151 138 232q115 67 297 67q243 0 359 -113q78 -76 78 -186q0 -149 -137 -230q-116 -68 -300 -68q-243 0 -359 114q-76 76 -76 184zM722 286q0 125 -153 155q-44 9 -99 9q-205 0 -243 -114q-7 -24 -7 -50q0 -126 154 -155q44 -8 96 -8q217 0 247 124q5 19 5 39z " glyph-name="otilde" horiz-adv-x="942" unicode="õ"/>
<glyph d="M35 286q0 151 138 232q115 67 297 67q243 0 359 -113q78 -76 78 -186q0 -149 -137 -230q-116 -68 -300 -68q-243 0 -359 114q-76 76 -76 184zM722 286q0 125 -153 155q-44 9 -99 9q-205 0 -243 -114q-7 -24 -7 -50q0 -126 154 -155q44 -8 96 -8q217 0 247 124q5 19 5 39z " glyph-name="odieresis" horiz-adv-x="942" unicode="ö"/>
<glyph d="M35 286q0 151 138 232q115 67 297 67q243 0 359 -113q78 -76 78 -186q0 -149 -137 -230q-116 -68 -300 -68q-243 0 -359 114q-76 76 -76 184zM722 286q0 125 -153 155q-44 9 -99 9q-205 0 -243 -114q-7 -24 -7 -50q0 -126 154 -155q44 -8 96 -8q217 0 247 124q5 19 5 39z " glyph-name="oslash" horiz-adv-x="942" unicode="ø"/>
<glyph d="M702 573h185v-573h-185v88q-105 -100 -291 -100q-229 0 -309 153q-37 71 -37 168v264h185v-238q0 -179 147 -207q29 -5 63 -5q235 0 242 240v15v195z" glyph-name="ugrave" horiz-adv-x="957" unicode="ù"/>
<glyph d="M702 573h185v-573h-185v88q-105 -100 -291 -100q-229 0 -309 153q-37 71 -37 168v264h185v-238q0 -179 147 -207q29 -5 63 -5q235 0 242 240v15v195z" glyph-name="uacute" horiz-adv-x="957" unicode="ú"/>
<glyph d="M702 573h185v-573h-185v88q-105 -100 -291 -100q-229 0 -309 153q-37 71 -37 168v264h185v-238q0 -179 147 -207q29 -5 63 -5q235 0 242 240v15v195z" glyph-name="ucircumflex" horiz-adv-x="957" unicode="û"/>
<glyph d="M702 573h185v-573h-185v88q-105 -100 -291 -100q-229 0 -309 153q-37 71 -37 168v264h185v-238q0 -179 147 -207q29 -5 63 -5q235 0 242 240v15v195z" glyph-name="udieresis" horiz-adv-x="957" unicode="ü"/>
<glyph d="M910 573l3 -4l-418 -670q-66 -106 -160 -136q-51 -15 -119 -15h-42v135l6 4h20q80 0 116 31q22 20 47 62l12 20h-1l-374 569l3 4h206l258 -402l249 402h194z" glyph-name="yacute" horiz-adv-x="913" unicode="ý"/>
</font>
</defs>
</svg>
